PathFileType	4	(X/Y/Z)	 0.06m3min.trc
DataRate	CameraRate	NumFrames	NumMarkers	Units	OrigDataRate	OrigDataStartFrame	OrigNumFrames
200	200	8	43	m	200	126	1000
Frame#	Time	C7			LSH			RSH			MAN			RASI			LASI			HIPR			HIPL			RPSI			LPSI			COX			RTHI1			RTHI2			RTHI3			RTHI4			RLKN			RMKN			RSHA1			RSHA2			RSHA3			RSHA4			RLMAL			RMMAL			RHEEL			RMET5			RMET1			RTOE			LTHI1			LTHI2			LTHI3			LTHI4			LLKN			LMKN			LSHA1			LSHA2			LSHA3			LSHA4			LLMAL			LMMAL			LHEEL			LMET5			LMET1			LTOE			
		X1	Y1	Z1	X2	Y2	Z2	X3	Y3	Z3	X4	Y4	Z4	X5	Y5	Z5	X6	Y6	Z6	X7	Y7	Z7	X8	Y8	Z8	X9	Y9	Z9	X10	Y10	Z10	X11	Y11	Z11	X12	Y12	Z12	X13	Y13	Z13	X14	Y14	Z14	X15	Y15	Z15	X16	Y16	Z16	X17	Y17	Z17	X18	Y18	Z18	X19	Y19	Z19	X20	Y20	Z20	X21	Y21	Z21	X22	Y22	Z22	X23	Y23	Z23	X24	Y24	Z24	X25	Y25	Z25	X26	Y26	Z26	X27	Y27	Z27	X28	Y28	Z28	X29	Y29	Z29	X30	Y30	Z30	X31	Y31	Z31	X32	Y32	Z32	X33	Y33	Z33	X34	Y34	Z34	X35	Y35	Z35	X36	Y36	Z36	X37	Y37	Z37	X38	Y38	Z38	X39	Y39	Z39	X40	Y40	Z40	X41	Y41	Z41	X42	Y42	Z42	X43	Y43	Z43	
126	0.6300	-0.277638	1.347970	-0.472174	-0.194455	1.324298	-0.625816	-0.222116	1.318898	-0.308003	-0.157127	1.283082	-0.461639	-0.155361	0.861541	-0.347073	-0.152623	0.855660	-0.588721	-0.201682	0.928285	-0.323314	-0.185001	0.921149	-0.611639	-0.320965	0.905035	-0.435501	-0.318891	0.903821	-0.506560	-0.316748	0.911038	-0.469771	-0.280202	0.687692	-0.292359	-0.265334	0.629517	-0.288474	-0.202632	0.642102	-0.278998	-0.208883	0.703311	-0.282500	-0.240265	0.432569	-0.302575	-0.222955	0.415657	-0.420011	-0.335742	0.267301	-0.303290	-0.348118	0.226517	-0.314257	-0.288360	0.213020	-0.304633	-0.284698	0.252911	-0.295044	-0.349375	0.094034	-0.326072	-0.319679	0.096355	-0.401514	-0.397263	0.083295	-0.371115	-0.257983	0.029848	-0.288815	-0.209298	0.041206	-0.355150	-0.187840	0.032579	-0.348931	-0.270780	0.697841	-0.649541	-0.253277	0.639332	-0.659141	-0.189401	0.652870	-0.662014	-0.199486	0.711417	-0.653743	-0.245697	0.427698	-0.652504	-0.213513	0.415688	-0.537546	-0.351847	0.279438	-0.651659	-0.361340	0.241009	-0.646379	-0.302516	0.227822	-0.657611	-0.298457	0.269547	-0.667235	-0.360017	0.104797	-0.638527	-0.341974	0.108698	-0.561503	-0.415756	0.097628	-0.593929	-0.277317	0.034147	-0.660181	-0.229503	0.040990	-0.589993	-0.213090	0.035128	-0.592621	
127	0.6350	-0.278018	1.351201	-0.472338	-0.194813	1.327959	-0.625992	-0.222360	1.322256	-0.308260	-0.157489	1.286581	-0.461901	-0.155085	0.865464	-0.347684	-0.152290	0.859856	-0.588841	-0.201345	0.932142	-0.323954	-0.184557	0.925768	-0.611531	-0.320364	0.908318	-0.435795	-0.318208	0.907254	-0.506837	-0.316148	0.914421	-0.470040	-0.280593	0.690973	-0.293355	-0.265987	0.632743	-0.289426	-0.203293	0.645069	-0.279583	-0.209251	0.706290	-0.283124	-0.241613	0.435789	-0.303130	-0.222934	0.418397	-0.420416	-0.336358	0.269993	-0.303918	-0.348393	0.229066	-0.314918	-0.288616	0.216027	-0.304648	-0.285371	0.256003	-0.295121	-0.348660	0.096382	-0.326070	-0.318478	0.098589	-0.401185	-0.396084	0.085996	-0.371240	-0.257829	0.030046	-0.288997	-0.209044	0.041130	-0.355113	-0.187755	0.032592	-0.348938	-0.270826	0.701324	-0.649913	-0.253436	0.642788	-0.659479	-0.189522	0.656171	-0.662222	-0.199491	0.714754	-0.654009	-0.246418	0.431174	-0.652522	-0.214582	0.419115	-0.537316	-0.351964	0.282189	-0.651748	-0.361217	0.243759	-0.646435	-0.302378	0.230841	-0.657895	-0.298569	0.272613	-0.667517	-0.358925	0.107217	-0.639172	-0.340645	0.110989	-0.562239	-0.414364	0.100420	-0.594433	-0.276918	0.034268	-0.660179	-0.229324	0.040974	-0.590021	-0.213039	0.035148	-0.592636	
128	0.6400	-0.278420	1.354731	-0.472523	-0.195084	1.331990	-0.626105	-0.222635	1.326009	-0.308582	-0.157870	1.290447	-0.462165	-0.154757	0.869515	-0.348366	-0.151947	0.864288	-0.589054	-0.200930	0.936108	-0.324585	-0.184164	0.930515	-0.611500	-0.319711	0.911925	-0.436064	-0.317510	0.910986	-0.507089	-0.315518	0.918096	-0.470281	-0.280957	0.694602	-0.294440	-0.266657	0.636297	-0.290423	-0.203976	0.648339	-0.280141	-0.209590	0.709564	-0.283772	-0.242975	0.439308	-0.303626	-0.222782	0.421503	-0.420758	-0.336937	0.272960	-0.304443	-0.348603	0.231902	-0.315482	-0.288791	0.219346	-0.304537	-0.285981	0.259383	-0.295106	-0.347840	0.098995	-0.325948	-0.317157	0.101091	-0.400685	-0.394755	0.088981	-0.371246	-0.257620	0.030268	-0.289156	-0.208795	0.041061	-0.355060	-0.187694	0.032593	-0.348980	-0.270881	0.705242	-0.650268	-0.253638	0.646671	-0.659811	-0.189678	0.659882	-0.662465	-0.199505	0.718491	-0.654282	-0.247369	0.435005	-0.652575	-0.215694	0.422819	-0.537150	-0.352107	0.285179	-0.651886	-0.361074	0.246752	-0.646537	-0.302222	0.234155	-0.658278	-0.298698	0.275973	-0.667883	-0.357722	0.109896	-0.639947	-0.339167	0.113537	-0.563103	-0.412800	0.103451	-0.595017	-0.276472	0.034414	-0.660192	-0.229166	0.040982	-0.590116	-0.213016	0.035181	-0.592679	
129	0.6450	-0.278839	1.358501	-0.472731	-0.195289	1.336320	-0.626153	-0.222950	1.330079	-0.308981	-0.158291	1.294616	-0.462431	-0.154401	0.873637	-0.349100	-0.151616	0.868863	-0.589370	-0.200450	0.940152	-0.325206	-0.183821	0.935328	-0.611556	-0.319020	0.915834	-0.436317	-0.316817	0.914985	-0.507328	-0.314884	0.922047	-0.470512	-0.281289	0.698523	-0.295597	-0.267340	0.640130	-0.291430	-0.204687	0.651855	-0.280657	-0.209905	0.713078	-0.284435	-0.244342	0.443074	-0.304073	-0.222603	0.424944	-0.421065	-0.337462	0.276179	-0.304872	-0.348729	0.234980	-0.315935	-0.288900	0.222934	-0.304324	-0.286495	0.262990	-0.295009	-0.346914	0.101845	-0.325710	-0.315685	0.103845	-0.400044	-0.393275	0.092190	-0.371138	-0.257366	0.030532	-0.289293	-0.208550	0.040997	-0.354987	-0.187661	0.032594	-0.349023	-0.270942	0.709532	-0.650616	-0.253861	0.650924	-0.660145	-0.189861	0.663938	-0.662725	-0.199514	0.722574	-0.654558	-0.248535	0.439109	-0.652676	-0.216828	0.426790	-0.537053	-0.352256	0.288385	-0.652070	-0.360913	0.249943	-0.646697	-0.302042	0.237709	-0.658760	-0.298839	0.279554	-0.668331	-0.356404	0.112798	-0.640838	-0.337542	0.116309	-0.564092	-0.411055	0.106666	-0.595653	-0.275964	0.034602	-0.660216	-0.229007	0.041004	-0.590252	-0.213006	0.035222	-0.592760	
130	0.6500	-0.279267	1.362453	-0.472959	-0.195449	1.340880	-0.626137	-0.223326	1.334411	-0.309454	-0.158791	1.299016	-0.462694	-0.154036	0.877791	-0.349876	-0.151311	0.873509	-0.589780	-0.199923	0.944262	-0.325826	-0.183527	0.940175	-0.611692	-0.318312	0.920000	-0.436561	-0.316151	0.919205	-0.507565	-0.314269	0.926238	-0.470746	-0.281595	0.702668	-0.296786	-0.268035	0.644166	-0.292433	-0.205416	0.655562	-0.281137	-0.210199	0.716784	-0.285096	-0.245709	0.447035	-0.304478	-0.222477	0.428689	-0.421363	-0.337918	0.279596	-0.305226	-0.348760	0.238284	-0.316270	-0.288925	0.226749	-0.304008	-0.286901	0.266792	-0.294854	-0.345882	0.104905	-0.325345	-0.314046	0.106794	-0.399270	-0.391641	0.095563	-0.370935	-0.257073	0.030836	-0.289434	-0.208309	0.040953	-0.354890	-0.187654	0.032598	-0.349069	-0.270995	0.714117	-0.650979	-0.254090	0.655460	-0.660490	-0.190053	0.668263	-0.662998	-0.199514	0.726924	-0.654845	-0.249870	0.443408	-0.652818	-0.217990	0.431015	-0.537024	-0.352398	0.291739	-0.652297	-0.360717	0.253280	-0.646916	-0.301826	0.241451	-0.659342	-0.298977	0.283308	-0.668858	-0.354951	0.115862	-0.641821	-0.335739	0.119254	-0.565198	-0.409134	0.110026	-0.596342	-0.275389	0.034843	-0.660246	-0.228848	0.041052	-0.590448	-0.213003	0.035278	-0.592895	
131	0.6550	-0.279699	1.366539	-0.473207	-0.195584	1.345603	-0.626066	-0.223757	1.338908	-0.309996	-0.159336	1.303594	-0.462949	-0.153682	0.881959	-0.350674	-0.151042	0.878176	-0.590267	-0.199367	0.948434	-0.326461	-0.183272	0.945031	-0.611885	-0.317611	0.924364	-0.436816	-0.315524	0.923604	-0.507813	-0.313678	0.930626	-0.470994	-0.281881	0.706968	-0.297981	-0.268739	0.648354	-0.293412	-0.206154	0.659402	-0.281613	-0.210484	0.720631	-0.285738	-0.247076	0.451138	-0.304846	-0.222478	0.432703	-0.421672	-0.338295	0.283178	-0.305501	-0.348691	0.241749	-0.316493	-0.288862	0.230753	-0.303596	-0.287194	0.270743	-0.294659	-0.344725	0.108094	-0.324885	-0.312179	0.109934	-0.398420	-0.389862	0.099055	-0.370659	-0.256728	0.031186	-0.289564	-0.208068	0.040911	-0.354765	-0.187677	0.032603	-0.349108	-0.271033	0.718908	-0.651375	-0.254314	0.660194	-0.660851	-0.190241	0.672772	-0.663277	-0.199502	0.731466	-0.655151	-0.251338	0.447831	-0.652983	-0.219183	0.435469	-0.537046	-0.352515	0.295202	-0.652558	-0.360477	0.256721	-0.647202	-0.301566	0.245331	-0.660020	-0.299091	0.287192	-0.669457	-0.353347	0.119053	-0.642889	-0.333743	0.122322	-0.566411	-0.407043	0.113500	-0.597093	-0.274755	0.035115	-0.660301	-0.228694	0.041124	-0.590711	-0.213004	0.035353	-0.593082	
132	0.6600	-0.280131	1.370708	-0.473473	-0.195709	1.350428	-0.625947	-0.224261	1.343530	-0.310610	-0.159930	1.308333	-0.463192	-0.153355	0.886125	-0.351488	-0.150820	0.882816	-0.590802	-0.198796	0.952661	-0.327123	-0.183056	0.949868	-0.612121	-0.316938	0.928860	-0.437090	-0.314942	0.928142	-0.508082	-0.313110	0.935165	-0.471270	-0.282159	0.711368	-0.299153	-0.269450	0.652647	-0.294354	-0.206901	0.663327	-0.282079	-0.210769	0.724566	-0.286357	-0.248435	0.455336	-0.305189	-0.222657	0.436932	-0.422012	-0.338580	0.286873	-0.305731	-0.348510	0.245310	-0.316635	-0.288700	0.234879	-0.303096	-0.287384	0.274823	-0.294406	-0.343419	0.111348	-0.324358	-0.310073	0.113200	-0.397498	-0.387940	0.102618	-0.370324	-0.256329	0.031607	-0.289681	-0.207844	0.040905	-0.354610	-0.187726	0.032634	-0.349106	-0.271047	0.723828	-0.651824	-0.254525	0.665050	-0.661241	-0.190410	0.677387	-0.663568	-0.199464	0.736125	-0.655489	-0.252893	0.452335	-0.653170	-0.220437	0.440123	-0.537093	-0.352576	0.298736	-0.652860	-0.360176	0.260221	-0.647550	-0.301245	0.249310	-0.660781	-0.299159	0.291165	-0.670108	-0.351584	0.122310	-0.644032	-0.331543	0.125457	-0.567722	-0.404797	0.117039	-0.597912	-0.274063	0.035441	-0.660395	-0.228534	0.041231	-0.591017	-0.212996	0.035461	-0.593328	
133	0.6650	-0.280559	1.374904	-0.473752	-0.195839	1.355300	-0.625790	-0.224832	1.348206	-0.311280	-0.160591	1.313110	-0.463427	-0.153058	0.890273	-0.352309	-0.150649	0.887401	-0.591362	-0.198221	0.956937	-0.327820	-0.182860	0.954677	-0.612376	-0.316307	0.933425	-0.437402	-0.314413	0.932768	-0.508379	-0.312562	0.939794	-0.471576	-0.282425	0.715802	-0.300293	-0.270156	0.656988	-0.295252	-0.207644	0.667290	-0.282548	-0.211057	0.728546	-0.286949	-0.249783	0.459588	-0.305512	-0.223024	0.441303	-0.422403	-0.338769	0.290638	-0.305928	-0.348215	0.248916	-0.316707	-0.288448	0.239065	-0.302529	-0.287496	0.279008	-0.294076	-0.341949	0.114609	-0.323773	-0.307737	0.116546	-0.396519	-0.385897	0.106222	-0.369948	-0.255921	0.032078	-0.289771	-0.207587	0.040955	-0.354451	-0.187776	0.032695	-0.349027	-0.271037	0.728797	-0.652329	-0.254711	0.669959	-0.661678	-0.190556	0.682040	-0.663874	-0.199397	0.740823	-0.655864	-0.254500	0.456869	-0.653357	-0.221751	0.444940	-0.537138	-0.352569	0.302301	-0.653195	-0.359796	0.263744	-0.647948	-0.300855	0.253345	-0.661611	-0.299181	0.295194	-0.670808	-0.349654	0.125567	-0.645230	-0.329149	0.128603	-0.569130	-0.402411	0.120610	-0.598821	-0.273307	0.035801	-0.660505	-0.228351	0.041392	-0.591359	-0.212966	0.035588	-0.593640	
